<svg width="137" height="25" viewBox="0 0 137 25" fill="none" xmlns="http://www.w3.org/2000/svg">
<path d="M0.455633 24V0.727272H8.31927C10.1375 0.727272 11.6299 1.03788 12.7965 1.65909C13.9632 2.27273 14.8268 3.11742 15.3875 4.19318C15.9481 5.26894 16.2284 6.49242 16.2284 7.86364C16.2284 9.23485 15.9481 10.4508 15.3875 11.5114C14.8268 12.572 13.967 13.4053 12.8079 14.0114C11.6488 14.6098 10.1678 14.9091 8.36472 14.9091H2.00109V12.3636H8.27382C9.51624 12.3636 10.5162 12.1818 11.2738 11.8182C12.039 11.4545 12.592 10.9394 12.9329 10.2727C13.2814 9.59848 13.4556 8.79545 13.4556 7.86364C13.4556 6.93182 13.2814 6.11742 12.9329 5.42045C12.5844 4.72348 12.0276 4.18561 11.2625 3.80682C10.4973 3.42045 9.48594 3.22727 8.22836 3.22727H3.27382V24H0.455633ZM11.4102 13.5455L17.1375 24H13.8647L8.22836 13.5455H11.4102ZM27.7874 24.3636C26.1056 24.3636 24.6549 23.9924 23.4352 23.25C22.223 22.5 21.2874 21.4545 20.6283 20.1136C19.9768 18.7652 19.6511 17.197 19.6511 15.4091C19.6511 13.6212 19.9768 12.0455 20.6283 10.6818C21.2874 9.31061 22.2041 8.24242 23.3783 7.47727C24.5602 6.70455 25.9389 6.31818 27.5147 6.31818C28.4238 6.31818 29.3215 6.4697 30.2079 6.77273C31.0942 7.07576 31.9011 7.56818 32.6283 8.25C33.3556 8.92424 33.9352 9.81818 34.367 10.9318C34.7988 12.0455 35.0147 13.4167 35.0147 15.0455V16.1818H21.5602V13.8636H32.2874C32.2874 12.8788 32.0905 12 31.6965 11.2273C31.3102 10.4545 30.7571 9.8447 30.0374 9.39773C29.3253 8.95076 28.4844 8.72727 27.5147 8.72727C26.4465 8.72727 25.5223 8.99242 24.742 9.52273C23.9692 10.0455 23.3746 10.7273 22.9579 11.5682C22.5412 12.4091 22.3329 13.3106 22.3329 14.2727V15.8182C22.3329 17.1364 22.5602 18.2538 23.0147 19.1705C23.4768 20.0795 24.117 20.7727 24.9352 21.25C25.7533 21.7197 26.7041 21.9545 27.7874 21.9545C28.492 21.9545 29.1283 21.8561 29.6965 21.6591C30.2723 21.4545 30.7685 21.1515 31.1852 20.75C31.6018 20.3409 31.9238 19.8333 32.1511 19.2273L34.742 19.9545C34.4692 20.8333 34.0109 21.6061 33.367 22.2727C32.723 22.9318 31.9276 23.447 30.9806 23.8182C30.0336 24.1818 28.9692 24.3636 27.7874 24.3636ZM44.3266 24.4091C43.2206 24.4091 42.2168 24.2008 41.3152 23.7841C40.4137 23.3598 39.6978 22.75 39.1675 21.9545C38.6372 21.1515 38.3721 20.1818 38.3721 19.0455C38.3721 18.0455 38.569 17.2348 38.963 16.6136C39.3569 15.9848 39.8834 15.4924 40.5425 15.1364C41.2016 14.7803 41.9289 14.5152 42.7243 14.3409C43.5274 14.1591 44.3342 14.0152 45.1448 13.9091C46.2054 13.7727 47.0652 13.6705 47.7243 13.6023C48.391 13.5265 48.8759 13.4015 49.1789 13.2273C49.4895 13.053 49.6448 12.75 49.6448 12.3182V12.2273C49.6448 11.1061 49.338 10.2348 48.7243 9.61364C48.1183 8.99242 47.1978 8.68182 45.963 8.68182C44.6827 8.68182 43.6789 8.96212 42.9516 9.52273C42.2243 10.0833 41.713 10.6818 41.4175 11.3182L38.8721 10.4091C39.3266 9.34848 39.9327 8.52273 40.6902 7.93182C41.4554 7.33333 42.2887 6.91667 43.1902 6.68182C44.0993 6.43939 44.9933 6.31818 45.8721 6.31818C46.4327 6.31818 47.0766 6.38636 47.8039 6.52273C48.5387 6.65151 49.2471 6.92045 49.9289 7.32954C50.6183 7.73864 51.1902 8.35606 51.6448 9.18182C52.0993 10.0076 52.3266 11.1136 52.3266 12.5V24H49.6448V21.6364H49.5084C49.3266 22.0152 49.0236 22.4205 48.5993 22.8523C48.1751 23.2841 47.6107 23.6515 46.9062 23.9545C46.2016 24.2576 45.3418 24.4091 44.3266 24.4091ZM44.7357 22C45.7963 22 46.6902 21.7917 47.4175 21.375C48.1524 20.9583 48.7054 20.4205 49.0766 19.7614C49.4554 19.1023 49.6448 18.4091 49.6448 17.6818V15.2273C49.5312 15.3636 49.2812 15.4886 48.8948 15.6023C48.516 15.7083 48.0766 15.803 47.5766 15.8864C47.0842 15.9621 46.6031 16.0303 46.1334 16.0909C45.6713 16.1439 45.2963 16.1894 45.0084 16.2273C44.3115 16.3182 43.6599 16.4659 43.0539 16.6705C42.4554 16.8674 41.9706 17.1667 41.5993 17.5682C41.2357 17.9621 41.0539 18.5 41.0539 19.1818C41.0539 20.1136 41.3986 20.8182 42.088 21.2955C42.7849 21.7652 43.6675 22 44.7357 22ZM59.9993 0.727272V24H57.3175V0.727272H59.9993Z" fill="#689F38"/>
<path d="M65.3709 24V0.727272H73.5072C75.1285 0.727272 76.4656 1.00758 77.5186 1.56818C78.5716 2.12121 79.3557 2.86742 79.8709 3.80682C80.386 4.73864 80.6436 5.77273 80.6436 6.90909C80.6436 7.90909 80.4656 8.73485 80.1095 9.38636C79.761 10.0379 79.2989 10.553 78.7232 10.9318C78.155 11.3106 77.5376 11.5909 76.8709 11.7727V12C77.583 12.0455 78.2989 12.2955 79.0186 12.75C79.7383 13.2045 80.3406 13.8561 80.8254 14.7045C81.3103 15.553 81.5527 16.5909 81.5527 17.8182C81.5527 18.9848 81.2876 20.0341 80.7572 20.9659C80.2269 21.8977 79.3898 22.6364 78.2459 23.1818C77.1019 23.7273 75.6133 24 73.78 24H65.3709ZM68.1891 21.5H73.78C75.6209 21.5 76.9277 21.1439 77.7004 20.4318C78.4807 19.7121 78.8709 18.8409 78.8709 17.8182C78.8709 17.0303 78.6701 16.303 78.2686 15.6364C77.8671 14.9621 77.2951 14.4242 76.5527 14.0227C75.8103 13.6136 74.9315 13.4091 73.9163 13.4091H68.1891V21.5ZM68.1891 10.9545H73.4163C74.2648 10.9545 75.03 10.7879 75.7118 10.4545C76.4012 10.1212 76.9466 9.65151 77.3482 9.04545C77.7572 8.43939 77.9618 7.72727 77.9618 6.90909C77.9618 5.88636 77.6057 5.01894 76.8936 4.30682C76.1815 3.58712 75.0527 3.22727 73.5072 3.22727H68.1891V10.9545ZM85.9158 24V6.54545H88.5976V24H85.9158ZM87.2794 3.63636C86.7567 3.63636 86.3059 3.45833 85.9271 3.10227C85.5559 2.74621 85.3703 2.31818 85.3703 1.81818C85.3703 1.31818 85.5559 0.890151 85.9271 0.53409C86.3059 0.17803 86.7567 0 87.2794 0C87.8021 0 88.2491 0.17803 88.6203 0.53409C88.9991 0.890151 89.1885 1.31818 89.1885 1.81818C89.1885 2.31818 88.9991 2.74621 88.6203 3.10227C88.2491 3.45833 87.8021 3.63636 87.2794 3.63636ZM101.196 6.54545V8.81818H92.1509V6.54545H101.196ZM94.7873 2.36364H97.4691V19C97.4691 19.7576 97.579 20.3258 97.7987 20.7045C98.0259 21.0758 98.3138 21.3258 98.6623 21.4545C99.0184 21.5758 99.3934 21.6364 99.7873 21.6364C100.083 21.6364 100.325 21.6212 100.515 21.5909C100.704 21.553 100.855 21.5227 100.969 21.5L101.515 23.9091C101.333 23.9773 101.079 24.0455 100.753 24.1136C100.427 24.1894 100.015 24.2273 99.5146 24.2273C98.757 24.2273 98.0146 24.0644 97.2873 23.7386C96.5676 23.4129 95.9691 22.9167 95.4919 22.25C95.0222 21.5833 94.7873 20.7424 94.7873 19.7273V2.36364ZM112.457 24.3636C110.775 24.3636 109.325 23.9924 108.105 23.25C106.893 22.5 105.957 21.4545 105.298 20.1136C104.647 18.7652 104.321 17.197 104.321 15.4091C104.321 13.6212 104.647 12.0455 105.298 10.6818C105.957 9.31061 106.874 8.24242 108.048 7.47727C109.23 6.70455 110.609 6.31818 112.184 6.31818C113.094 6.31818 113.991 6.4697 114.878 6.77273C115.764 7.07576 116.571 7.56818 117.298 8.25C118.025 8.92424 118.605 9.81818 119.037 10.9318C119.469 12.0455 119.684 13.4167 119.684 15.0455V16.1818H106.23V13.8636H116.957C116.957 12.8788 116.76 12 116.366 11.2273C115.98 10.4545 115.427 9.8447 114.707 9.39773C113.995 8.95076 113.154 8.72727 112.184 8.72727C111.116 8.72727 110.192 8.99242 109.412 9.52273C108.639 10.0455 108.044 10.7273 107.628 11.5682C107.211 12.4091 107.003 13.3106 107.003 14.2727V15.8182C107.003 17.1364 107.23 18.2538 107.684 19.1705C108.147 20.0795 108.787 20.7727 109.605 21.25C110.423 21.7197 111.374 21.9545 112.457 21.9545C113.162 21.9545 113.798 21.8561 114.366 21.6591C114.942 21.4545 115.438 21.1515 115.855 20.75C116.272 20.3409 116.594 19.8333 116.821 19.2273L119.412 19.9545C119.139 20.8333 118.681 21.6061 118.037 22.2727C117.393 22.9318 116.597 23.447 115.65 23.8182C114.703 24.1818 113.639 24.3636 112.457 24.3636ZM136.224 10.4545L133.815 11.1364C133.663 10.7348 133.44 10.3447 133.144 9.96591C132.856 9.57955 132.462 9.26136 131.962 9.01136C131.462 8.76136 130.822 8.63636 130.042 8.63636C128.974 8.63636 128.083 8.88258 127.371 9.375C126.667 9.85985 126.315 10.4773 126.315 11.2273C126.315 11.8939 126.557 12.4205 127.042 12.8068C127.527 13.1932 128.284 13.5152 129.315 13.7727L131.905 14.4091C133.466 14.7879 134.629 15.3674 135.394 16.1477C136.159 16.9205 136.542 17.9167 136.542 19.1364C136.542 20.1364 136.254 21.0303 135.678 21.8182C135.11 22.6061 134.315 23.2273 133.292 23.6818C132.269 24.1364 131.08 24.3636 129.724 24.3636C127.943 24.3636 126.47 23.9773 125.303 23.2045C124.137 22.4318 123.398 21.303 123.087 19.8182L125.633 19.1818C125.875 20.1212 126.333 20.8258 127.008 21.2955C127.69 21.7652 128.58 22 129.678 22C130.928 22 131.921 21.7348 132.655 21.2045C133.398 20.6667 133.769 20.0227 133.769 19.2727C133.769 18.6667 133.557 18.1591 133.133 17.75C132.708 17.3333 132.057 17.0227 131.178 16.8182L128.269 16.1364C126.671 15.7576 125.496 15.1705 124.746 14.375C124.004 13.572 123.633 12.5682 123.633 11.3636C123.633 10.3788 123.909 9.50758 124.462 8.75C125.023 7.99242 125.784 7.39773 126.746 6.96591C127.716 6.53409 128.815 6.31818 130.042 6.31818C131.769 6.31818 133.125 6.69697 134.11 7.45454C135.102 8.21212 135.807 9.21212 136.224 10.4545Z" fill="#313131"/>
</svg>
